<svg width="16" height="17" viewBox="0 0 16 17" fill="none" xmlns="http://www.w3.org/2000/svg">
<g id="icon">
<path id="Vector" d="M2.54821 4.37558C2.57652 4.34622 2.61096 4.33325 2.64286 4.33325H13.3571C13.389 4.33325 13.4235 4.34622 13.4518 4.37558C13.4807 4.40556 13.5 4.44997 13.5 4.49992C13.5 4.54987 13.4807 4.59428 13.4518 4.62426C13.4235 4.65361 13.389 4.66659 13.3571 4.66659H2.64286C2.61096 4.66659 2.57652 4.65361 2.54821 4.62426C2.51931 4.59428 2.5 4.54987 2.5 4.49992C2.5 4.44997 2.51931 4.40556 2.54821 4.37558ZM2.54821 7.04225C2.57652 7.01289 2.61096 6.99992 2.64286 6.99992H13.3571C13.389 6.99992 13.4235 7.01289 13.4518 7.04225C13.4807 7.07223 13.5 7.11664 13.5 7.16659C13.5 7.21654 13.4807 7.26095 13.4518 7.29092C13.4235 7.32028 13.389 7.33325 13.3571 7.33325H2.64286C2.61096 7.33325 2.57652 7.32028 2.54821 7.29092C2.51931 7.26095 2.5 7.21654 2.5 7.16659C2.5 7.11663 2.5193 7.07223 2.54821 7.04225ZM2.5 9.83325C2.5 9.7833 2.5193 9.73889 2.54821 9.70892C2.57652 9.67956 2.61096 9.66659 2.64286 9.66659H13.3571C13.389 9.66659 13.4235 9.67956 13.4518 9.70892C13.4807 9.73889 13.5 9.7833 13.5 9.83325C13.5 9.8832 13.4807 9.92761 13.4518 9.95759C13.4235 9.98695 13.389 9.99992 13.3571 9.99992H2.64286C2.61096 9.99992 2.57652 9.98695 2.54821 9.95759C2.5193 9.92761 2.5 9.8832 2.5 9.83325ZM2.54821 12.3756C2.57652 12.3462 2.61096 12.3333 2.64286 12.3333H9.92857C9.96047 12.3333 9.99491 12.3462 10.0232 12.3756C10.0521 12.4056 10.0714 12.45 10.0714 12.4999C10.0714 12.5499 10.0521 12.5943 10.0232 12.6243L10.3831 12.9713L10.0232 12.6243C9.99491 12.6536 9.96047 12.6666 9.92857 12.6666H2.64286C2.61096 12.6666 2.57652 12.6536 2.54821 12.6243L2.18829 12.9713L2.54821 12.6243C2.5193 12.5943 2.5 12.5499 2.5 12.4999C2.5 12.45 2.5193 12.4056 2.54821 12.3756Z" fill="black" stroke="#515151"/>
</g>
</svg>
