<svg width="20" height="21" viewBox="0 0 20 21" fill="none" xmlns="http://www.w3.org/2000/svg">
<path d="M17.5 7.16667V16.3333C17.5 16.7754 17.3244 17.1993 17.0118 17.5118C16.6993 17.8244 16.2754 18 15.8333 18H4.16667C3.72464 18 3.30072 17.8244 2.98816 17.5118C2.67559 17.1993 2.5 16.7754 2.5 16.3333V7.16667H17.5ZM7.08333 13H6.25C6.0376 13.0002 5.83331 13.0816 5.67886 13.2274C5.52441 13.3732 5.43147 13.5725 5.41902 13.7845C5.40658 13.9965 5.47556 14.2053 5.61189 14.3682C5.74821 14.5311 5.94159 14.6357 6.1525 14.6608L6.25 14.6667H7.08333C7.29573 14.6664 7.50003 14.5851 7.65447 14.4393C7.80892 14.2935 7.90186 14.0942 7.91431 13.8822C7.92676 13.6701 7.85777 13.4614 7.72145 13.2985C7.58512 13.1356 7.39175 13.0309 7.18083 13.0058L7.08333 13ZM10.4167 13H9.58333C9.36232 13 9.15036 13.0878 8.99408 13.2441C8.8378 13.4004 8.75 13.6123 8.75 13.8333C8.75 14.0543 8.8378 14.2663 8.99408 14.4226C9.15036 14.5789 9.36232 14.6667 9.58333 14.6667H10.4167C10.6377 14.6667 10.8496 14.5789 11.0059 14.4226C11.1622 14.2663 11.25 14.0543 11.25 13.8333C11.25 13.6123 11.1622 13.4004 11.0059 13.2441C10.8496 13.0878 10.6377 13 10.4167 13ZM7.08333 9.66667H6.25C6.02899 9.66667 5.81702 9.75446 5.66074 9.91074C5.50446 10.067 5.41667 10.279 5.41667 10.5C5.41667 10.721 5.50446 10.933 5.66074 11.0893C5.81702 11.2455 6.02899 11.3333 6.25 11.3333H7.08333C7.30435 11.3333 7.51631 11.2455 7.67259 11.0893C7.82887 10.933 7.91667 10.721 7.91667 10.5C7.91667 10.279 7.82887 10.067 7.67259 9.91074C7.51631 9.75446 7.30435 9.66667 7.08333 9.66667ZM10.4167 9.66667H9.58333C9.37093 9.6669 9.16664 9.74823 9.01219 9.89404C8.85775 10.0398 8.7648 10.2391 8.75236 10.4512C8.73991 10.6632 8.8089 10.872 8.94522 11.0349C9.08155 11.1977 9.27492 11.3024 9.48583 11.3275L9.58333 11.3333H10.4167C10.6291 11.3331 10.8334 11.2518 10.9878 11.106C11.1423 10.9602 11.2352 10.7609 11.2476 10.5488C11.2601 10.3368 11.1911 10.128 11.0548 9.96514C10.9185 9.80226 10.7251 9.69759 10.5142 9.6725L10.4167 9.66667ZM13.75 9.66667H12.9167C12.6957 9.66667 12.4837 9.75446 12.3274 9.91074C12.1711 10.067 12.0833 10.279 12.0833 10.5C12.0833 10.721 12.1711 10.933 12.3274 11.0893C12.4837 11.2455 12.6957 11.3333 12.9167 11.3333H13.75C13.971 11.3333 14.183 11.2455 14.3393 11.0893C14.4955 10.933 14.5833 10.721 14.5833 10.5C14.5833 10.279 14.4955 10.067 14.3393 9.91074C14.183 9.75446 13.971 9.66667 13.75 9.66667ZM15.8333 3C16.2754 3 16.6993 3.17559 17.0118 3.48816C17.3244 3.80072 17.5 4.22464 17.5 4.66667V5.5H2.5V4.66667C2.5 4.22464 2.67559 3.80072 2.98816 3.48816C3.30072 3.17559 3.72464 3 4.16667 3H15.8333Z" fill="#DDDDDD"/>
</svg>
