<svg width="16" height="20" viewBox="0 0 16 20" fill="none" xmlns="http://www.w3.org/2000/svg">
<g id="Group">
<path id="Vector" fill-rule="evenodd" clip-rule="evenodd" d="M11.7974 8.24208C11.7974 9.18507 11.4228 10.0894 10.756 10.7562C10.0892 11.423 9.18482 11.7976 8.24183 11.7976C7.29884 11.7976 6.39447 11.423 5.72768 10.7562C5.06088 10.0894 4.68628 9.18507 4.68628 8.24208C4.68628 7.29909 5.06088 6.39472 5.72768 5.72792C6.39447 5.06113 7.29884 4.68652 8.24183 4.68652C9.18482 4.68652 10.0892 5.06113 10.756 5.72792C11.4228 6.39472 11.7974 7.29909 11.7974 8.24208ZM10.0196 8.24208C10.0196 8.71357 9.83231 9.16576 9.49891 9.49916C9.16551 9.83255 8.71333 10.0199 8.24183 10.0199C7.77034 10.0199 7.31815 9.83255 6.98475 9.49916C6.65136 9.16576 6.46406 8.71357 6.46406 8.24208C6.46406 7.77058 6.65136 7.3184 6.98475 6.985C7.31815 6.6516 7.77034 6.4643 8.24183 6.4643C8.71333 6.4643 9.16551 6.6516 9.49891 6.985C9.83231 7.3184 10.0196 7.77058 10.0196 8.24208Z" fill="black"/>
<path id="Vector_2" fill-rule="evenodd" clip-rule="evenodd" d="M2.48356 13.7939C1.33764 12.7028 0.540986 11.2964 0.194346 9.75263C-0.152294 8.20882 -0.0333522 6.59688 0.536129 5.12066C1.10561 3.64444 2.10005 2.37024 3.39371 1.4592C4.68736 0.54816 6.22211 0.041191 7.80389 0.00240482C9.38567 -0.0363814 10.9434 0.394757 12.2802 1.2413C13.6169 2.08784 14.6726 3.31177 15.3138 4.7583C15.9549 6.20483 16.1527 7.80901 15.8822 9.36796C15.6116 10.9269 14.8848 12.3706 13.7938 13.5165L8.27733 19.3103L2.48356 13.7939ZM12.5067 12.2907L8.216 16.7974L3.70934 12.5067C2.81811 11.6582 2.19852 10.5643 1.92893 9.36361C1.65934 8.16289 1.75186 6.9092 2.19477 5.76105C2.63769 4.61291 3.41111 3.62188 4.41725 2.9133C5.42338 2.20471 6.61704 1.81038 7.84728 1.78017C9.07753 1.74997 10.2891 2.08524 11.3288 2.7436C12.3685 3.40196 13.1896 4.35383 13.6884 5.47885C14.1871 6.60388 14.341 7.85152 14.1307 9.06403C13.9203 10.2765 13.3552 11.3994 12.5067 12.2907Z" fill="black"/>
</g>
</svg>
