<svg width="85" height="85" viewBox="0 0 85 85" fill="none" xmlns="http://www.w3.org/2000/svg">
<circle cx="42.5" cy="42.5" r="42.5" fill="#F7C1BD"/>
<g transform="translate(13.5, 13.5)">
    <path d="M47.125 14.5C44.984 14.9814 42.9562 15.5127 41.0418 16.0803C36.4539 17.4396 32.4891 19.1559 29.102 20.7984C26.9156 21.8599 26.134 22.3289 23.268 23.9964C16.6523 27.8128 12.6875 32.7643 12.6875 40.1741C12.6875 48.5467 18.9859 54.375 29 54.375C39.0141 54.375 45.3125 48.0528 45.3125 39.6802C45.3125 31.3075 38.4023 25.5155 47.125 14.5Z" stroke="#621D1E" stroke-width="4" stroke-linecap="round" stroke-linejoin="round"/>
    <path d="M29.9062 20.4121C27.6757 17.3536 25.5789 16.0293 23.9363 15.1344C18.4195 12.1324 10.875 10.875 10.875 10.875C15.5762 15.8254 15.0891 21.0816 14.5 25.375C14.5 25.375 14.0616 29.0997 14.7164 31.9918" stroke="#621D1E" stroke-width="4" stroke-linecap="round" stroke-linejoin="round"/>
    <path d="M42.1405 15.7631C40.3904 11.6227 38.0624 7.25 38.0624 7.25C38.0624 7.25 30.8895 7.25 22.6913 14.5M28.7145 9.92004C25.0634 5.18941 19.9374 3.625 19.9374 3.625C18.2042 5.98125 16.6761 9.46805 15.9873 12.0271" stroke="#621D1E" stroke-width="4" stroke-linecap="round" stroke-linejoin="round"/>
  </g>
</svg>
