<svg width="18" height="21" viewBox="0 0 18 21" fill="none" xmlns="http://www.w3.org/2000/svg">
<g id="Group">
<path id="Vector" d="M16 0C16.5304 0 17.0391 0.210714 17.4142 0.585786C17.7893 0.960859 18 1.46957 18 2V16C18 16.5304 17.7893 17.0391 17.4142 17.4142C17.0391 17.7893 16.5304 18 16 18H2C1.46957 18 0.960859 17.7893 0.585786 17.4142C0.210714 17.0391 0 16.5304 0 16V2C0 1.46957 0.210714 0.960859 0.585786 0.585786C0.960859 0.210714 1.46957 0 2 0H16ZM16 6H2V16H16V6ZM5.5 12C5.76522 12 6.01957 12.1054 6.20711 12.2929C6.39464 12.4804 6.5 12.7348 6.5 13C6.5 13.2652 6.39464 13.5196 6.20711 13.7071C6.01957 13.8946 5.76522 14 5.5 14H4.5C4.23478 14 3.98043 13.8946 3.79289 13.7071C3.60536 13.5196 3.5 13.2652 3.5 13C3.5 12.7348 3.60536 12.4804 3.79289 12.2929C3.98043 12.1054 4.23478 12 4.5 12H5.5ZM9.5 12C9.75488 12.0003 10 12.0979 10.1854 12.2728C10.3707 12.4478 10.4822 12.687 10.4972 12.9414C10.5121 13.1958 10.4293 13.4464 10.2657 13.6418C10.1021 13.8373 9.8701 13.9629 9.617 13.993L9.5 14H8.5C8.24512 13.9997 7.99997 13.9021 7.81463 13.7272C7.6293 13.5522 7.51776 13.313 7.50283 13.0586C7.48789 12.8042 7.57067 12.5536 7.73426 12.3582C7.89785 12.1627 8.1299 12.0371 8.383 12.007L8.5 12H9.5ZM5.5 8C5.75488 8.00028 6.00003 8.09788 6.18537 8.27285C6.3707 8.44782 6.48224 8.68695 6.49717 8.94139C6.51211 9.19584 6.42933 9.44638 6.26574 9.64183C6.10215 9.83729 5.8701 9.9629 5.617 9.993L5.5 10H4.5C4.24512 9.99972 3.99997 9.90212 3.81463 9.72715C3.6293 9.55218 3.51777 9.31305 3.50283 9.05861C3.48789 8.80416 3.57067 8.55362 3.73426 8.35817C3.89786 8.16271 4.1299 8.0371 4.383 8.007L4.5 8H5.5ZM9.5 8C9.76522 8 10.0196 8.10536 10.2071 8.29289C10.3946 8.48043 10.5 8.73478 10.5 9C10.5 9.26522 10.3946 9.51957 10.2071 9.70711C10.0196 9.89464 9.76522 10 9.5 10H8.5C8.23478 10 7.98043 9.89464 7.79289 9.70711C7.60536 9.51957 7.5 9.26522 7.5 9C7.5 8.73478 7.60536 8.48043 7.79289 8.29289C7.98043 8.10536 8.23478 8 8.5 8H9.5ZM13.5 8C13.7549 8.00028 14 8.09788 14.1854 8.27285C14.3707 8.44782 14.4822 8.68695 14.4972 8.94139C14.5121 9.19584 14.4293 9.44638 14.2657 9.64183C14.1021 9.83729 13.8701 9.9629 13.617 9.993L13.5 10H12.5C12.2451 9.99972 12 9.90212 11.8146 9.72715C11.6293 9.55218 11.5178 9.31305 11.5028 9.05861C11.4879 8.80416 11.5707 8.55362 11.7343 8.35817C11.8979 8.16271 12.1299 8.0371 12.383 8.007L12.5 8H13.5ZM16 2H2V4H16V2Z" fill="black"/>
</g>
</svg>
