<svg width="16" height="16" viewBox="0 0 16 16" fill="none" xmlns="http://www.w3.org/2000/svg">
<g id="icon">
<path id="Vector" d="M13.0198 4.27351C13.2125 4.45565 13.3249 4.70686 13.3324 4.97189C13.3399 5.23693 13.2419 5.49409 13.0598 5.68684L7.39313 11.6868C7.30129 11.7839 7.19092 11.8616 7.06856 11.9153C6.94619 11.969 6.8143 11.9976 6.68068 11.9995C6.54707 12.0013 6.41443 11.9764 6.29061 11.9261C6.1668 11.8759 6.05431 11.8013 5.95979 11.7068L2.9598 8.70684C2.78316 8.51728 2.68699 8.26655 2.69156 8.00748C2.69613 7.74841 2.80108 7.50123 2.9843 7.31801C3.16752 7.13479 3.4147 7.02985 3.67377 7.02527C3.93283 7.0207 4.18356 7.11687 4.37313 7.29351L6.64646 9.56551L11.6065 4.31351C11.7886 4.12084 12.0398 4.00839 12.3048 4.00089C12.5699 3.99339 12.827 4.09145 13.0198 4.27351Z" fill="#FFFCFC"/>
</g>
</svg>
