<svg width="20" height="21" viewBox="0 0 20 21" fill="none" xmlns="http://www.w3.org/2000/svg">
<path d="M10 11.4375C10.5178 11.4375 10.9375 11.0178 10.9375 10.5C10.9375 9.98223 10.5178 9.5625 10 9.5625C9.48223 9.5625 9.0625 9.98223 9.0625 10.5C9.0625 11.0178 9.48223 11.4375 10 11.4375Z" fill="#DDDDDD"/>
<path d="M10 2.375C5.51992 2.375 1.875 6.01992 1.875 10.5C1.875 14.9801 5.51992 18.625 10 18.625C14.4801 18.625 18.125 14.9801 18.125 10.5C18.125 6.01992 14.4801 2.375 10 2.375ZM14.1043 6.80195L12.273 11.3801C12.1473 11.6945 11.959 11.9801 11.7195 12.2195C11.4801 12.459 11.1945 12.6473 10.8801 12.773L6.30195 14.6043C6.24516 14.627 6.18295 14.6326 6.12303 14.6203C6.0631 14.608 6.00811 14.5784 5.96485 14.5351C5.9216 14.4919 5.89199 14.4369 5.8797 14.377C5.86741 14.317 5.87297 14.2548 5.8957 14.198L7.72695 9.61992C7.85269 9.3055 8.041 9.0199 8.28045 8.78045C8.5199 8.541 8.8055 8.35269 9.11992 8.22695L13.698 6.3957C13.7548 6.37297 13.817 6.36741 13.877 6.3797C13.9369 6.39199 13.9919 6.4216 14.0351 6.46485C14.0784 6.50811 14.108 6.5631 14.1203 6.62303C14.1326 6.68295 14.127 6.74516 14.1043 6.80195Z" fill="#DDDDDD"/>
</svg>
