<svg xmlns="http://www.w3.org/2000/svg" width="19" height="20" viewBox="0 0 19 20" fill="none">
<path d="M13.475 3.90783L15.592 6.02483M14.836 2.04283L9.109 7.76983C8.81221 8.06467 8.61024 8.44144 8.529 8.85183L8 11.4998L10.648 10.9698C11.058 10.8878 11.434 10.6868 11.73 10.3908L17.457 4.66383C17.6291 4.49173 17.7656 4.28742 17.8588 4.06256C17.9519 3.83771 17.9998 3.59671 17.9998 3.35333C17.9998 3.10994 17.9519 2.86895 17.8588 2.64409C17.7656 2.41923 17.6291 2.21492 17.457 2.04283C17.2849 1.87073 17.0806 1.73421 16.8557 1.64108C16.6309 1.54794 16.3899 1.5 16.1465 1.5C15.9031 1.5 15.6621 1.54794 15.4373 1.64108C15.2124 1.73421 15.0081 1.87073 14.836 2.04283Z" stroke="#F0F0F0" stroke-width="2" stroke-linecap="round" stroke-linejoin="round"/>
<path d="M16 13.5V16.5C16 17.0304 15.7893 17.5391 15.4142 17.9142C15.0391 18.2893 14.5304 18.5 14 18.5H3C2.46957 18.5 1.96086 18.2893 1.58579 17.9142C1.21071 17.5391 1 17.0304 1 16.5V5.5C1 4.96957 1.21071 4.46086 1.58579 4.08579C1.96086 3.71071 2.46957 3.5 3 3.5H6" stroke="#F0F0F0" stroke-width="2" stroke-linecap="round" stroke-linejoin="round"/>
</svg>