<svg width="32" height="33" viewBox="0 0 32 33" fill="none" xmlns="http://www.w3.org/2000/svg">
<g id="icon" clip-path="url(#clip0_1166_9555)">
<path id="Vector" fill-rule="evenodd" clip-rule="evenodd" d="M1.60008 18.1004C0.128077 18.1004 -0.563123 16.2812 0.537677 15.3052L14.9377 2.50519C15.2305 2.24517 15.6085 2.10156 16.0001 2.10156C16.3917 2.10156 16.7697 2.24517 17.0625 2.50519L31.4625 15.3052C32.5633 16.2812 31.8721 18.1004 30.4001 18.1004H28.8001V29.3004C28.8001 29.7247 28.6315 30.1317 28.3314 30.4318C28.0314 30.7318 27.6244 30.9004 27.2001 30.9004H4.80008C4.37573 30.9004 3.96876 30.7318 3.66871 30.4318C3.36865 30.1317 3.20008 29.7247 3.20008 29.3004V18.1004H1.60008ZM11.2001 27.7004V19.7004C11.2001 19.276 11.3686 18.8691 11.6687 18.569C11.9688 18.269 12.3757 18.1004 12.8001 18.1004H19.2001C19.6244 18.1004 20.0314 18.269 20.3314 18.569C20.6315 18.8691 20.8001 19.276 20.8001 19.7004V27.7004H25.6001V16.5004C25.6 16.2157 25.6759 15.9362 25.8199 15.6907C25.9639 15.4452 26.1708 15.2425 26.4193 15.1036L16.0001 5.83959L5.58088 15.1036C5.82933 15.2425 6.03623 15.4452 6.18023 15.6907C6.32423 15.9362 6.40012 16.2157 6.40008 16.5004V27.7004H11.2001ZM14.4001 27.7004V21.3004H17.6001V27.7004H14.4001Z" fill="#621D1E"/>
</g>
<defs>
<clipPath id="clip0_1166_9555">
<rect width="32" height="32" fill="white" transform="translate(0 0.5)"/>
</clipPath>
</defs>
</svg>
