<svg width="34" height="34" viewBox="0 0 34 34" fill="none" xmlns="http://www.w3.org/2000/svg">
<g id="icon">
<path id="Vector" d="M33.9886 17.6793C33.9886 18.7252 33.1032 19.5445 32.0998 19.5445H30.2109L30.2522 28.853C30.2522 29.0099 30.2404 29.1667 30.2227 29.3236V30.2649C30.2227 31.5491 29.1661 32.5892 27.8616 32.5892H26.9171C26.8522 32.5892 26.7873 32.5892 26.7223 32.5833C26.6397 32.5892 26.557 32.5892 26.4744 32.5892L24.556 32.5833H23.1393C21.8348 32.5833 20.7782 31.5433 20.7782 30.2591V25.1458C20.7782 24.1174 19.9341 23.2865 18.8893 23.2865H15.1116C14.0668 23.2865 13.2227 24.1174 13.2227 25.1458V30.2591C13.2227 31.5433 12.1661 32.5833 10.8616 32.5833H7.5619C7.47336 32.5833 7.38482 32.5775 7.29628 32.5717C7.22545 32.5775 7.15461 32.5833 7.08378 32.5833H6.13933C4.83482 32.5833 3.77822 31.5433 3.77822 30.2591V23.7513C3.77822 23.699 3.77822 23.6409 3.78413 23.5886V19.5387H1.89524C0.832736 19.5387 0.00634766 18.7252 0.00634766 17.6735C0.00634766 17.1505 0.183431 16.6857 0.596625 16.2789L15.7254 3.29819C16.1386 2.89145 16.6109 2.83334 17.0241 2.83334C17.4373 2.83334 17.9095 2.94955 18.2636 3.24008L33.3393 16.2848C33.8116 16.6915 34.0477 17.1563 33.9886 17.6793Z" fill="#91000F"/>
</g>
</svg>
