<svg width="34" height="35" viewBox="0 0 34 35" fill="none" xmlns="http://www.w3.org/2000/svg">
<g id="icon">
<path id="Vector" d="M18.948 31.4189C19.2077 31.4898 19.509 31.5195 19.8518 31.5082C20.1947 31.4968 20.4837 31.4435 20.7188 31.3481L31.1667 27.4168C31.1667 26.6141 30.8834 25.9411 30.3167 25.3981C29.7501 24.855 29.089 24.5835 28.3334 24.5835H18.6292C18.5584 24.5835 18.4758 24.5778 18.3813 24.5665C18.2869 24.5552 18.2161 24.5372 18.1688 24.5127L16.0792 23.7689C15.8904 23.6981 15.7605 23.58 15.6897 23.4147C15.6188 23.2495 15.607 23.0724 15.6542 22.8835C15.7015 22.7182 15.8195 22.5884 16.0084 22.4939C16.1973 22.3995 16.3862 22.3877 16.5751 22.4585L18.1688 23.0606C18.2633 23.1078 18.3402 23.1376 18.3997 23.1498C18.4592 23.1621 18.5476 23.1678 18.6647 23.1668H22.3834C22.832 23.1668 23.2273 23.0134 23.5692 22.7064C23.9111 22.3995 24.0825 21.9981 24.0834 21.5022C24.0834 21.1717 23.9828 20.8529 23.7817 20.546C23.5805 20.2391 23.3151 20.0266 22.9855 19.9085L13.1751 16.2606C13.0098 16.2134 12.8445 16.1718 12.6792 16.1359C12.514 16.1 12.3487 16.0826 12.1834 16.0835H9.91675V28.8689L18.948 31.4189ZM1.41675 28.8335C1.41675 29.6127 1.69441 30.2799 2.24975 30.8353C2.80508 31.3906 3.47186 31.6678 4.25008 31.6668C5.0283 31.6659 5.69555 31.3887 6.25183 30.8353C6.80811 30.2818 7.0853 29.6146 7.08342 28.8335V18.9168C7.08342 18.1377 6.80622 17.4709 6.25183 16.9165C5.69744 16.3621 5.03019 16.0844 4.25008 16.0835C3.46997 16.0826 2.80319 16.3602 2.24975 16.9165C1.6963 17.4728 1.41864 18.1396 1.41675 18.9168V28.8335ZM22.6667 17.7835C22.3126 17.7835 21.9646 17.7188 21.6227 17.5894C21.2808 17.46 20.9677 17.265 20.6834 17.0043L16.7876 13.1793C16.0556 12.471 15.4361 11.6862 14.9289 10.8248C14.4217 9.9635 14.1677 9.02472 14.1667 8.0085C14.1667 6.70989 14.6215 5.60631 15.531 4.69775C16.4405 3.78919 17.5441 3.33444 18.8417 3.3335C19.5973 3.3335 20.3056 3.49311 20.9667 3.81233C21.6279 4.13156 22.1945 4.56222 22.6667 5.10433C23.139 4.56128 23.7056 4.13014 24.3668 3.81092C25.0279 3.49169 25.7362 3.33256 26.4918 3.3335C27.7904 3.3335 28.8944 3.78825 29.8039 4.69775C30.7134 5.60725 31.1677 6.71083 31.1667 8.0085C31.1667 9.02378 30.9188 9.96256 30.423 10.8248C29.9272 11.6871 29.3133 12.4719 28.5813 13.1793L24.6501 17.0043C24.3667 17.2641 24.0541 17.4591 23.7122 17.5894C23.3704 17.7197 23.0219 17.7844 22.6667 17.7835Z" fill="black"/>
</g>
</svg>
