<svg width="29" height="28" viewBox="0 0 29 28" fill="none" xmlns="http://www.w3.org/2000/svg">
<path id="Vector" d="M20.3333 14.8337L14.7999 9.43366C14.111 8.767 13.5279 8.02833 13.0506 7.21766C12.5733 6.407 12.3341 5.52344 12.3333 4.567C12.3333 3.34477 12.7613 2.30611 13.6173 1.451C14.4733 0.595885 15.5119 0.167885 16.7333 0.166996C17.4444 0.166996 18.111 0.317218 18.7333 0.617663C19.3555 0.918107 19.8888 1.32344 20.3333 1.83366C20.7777 1.32255 21.311 0.916774 21.9333 0.616329C22.5555 0.315885 23.2221 0.166107 23.9333 0.166996C25.1555 0.166996 26.1946 0.594996 27.0506 1.451C27.9066 2.307 28.3341 3.34566 28.3333 4.567C28.3333 5.52255 28.0999 6.40611 27.6333 7.21766C27.1666 8.02922 26.5888 8.76789 25.8999 9.43366L20.3333 14.8337ZM20.3333 11.1003L23.9666 7.53366C24.3888 7.11144 24.7777 6.66122 25.1333 6.183C25.4888 5.70477 25.6666 5.16611 25.6666 4.567C25.6666 4.07811 25.4999 3.667 25.1666 3.33366C24.8333 3.00033 24.4221 2.83366 23.9333 2.83366C23.6221 2.83366 23.3275 2.89455 23.0493 3.01633C22.771 3.13811 22.5324 3.32166 22.3333 3.567L20.3333 5.967L18.3333 3.567C18.1333 3.32255 17.8946 3.139 17.6173 3.01633C17.3399 2.89366 17.0453 2.83277 16.7333 2.83366C16.2444 2.83366 15.8333 3.00033 15.4999 3.33366C15.1666 3.667 14.9999 4.07811 14.9999 4.567C14.9999 5.167 15.1777 5.70611 15.5333 6.18433C15.8888 6.66255 16.2777 7.11233 16.6999 7.53366L20.3333 11.1003ZM8.33325 22.167L17.5999 24.7003L25.5333 22.2337C25.4221 22.0337 25.2608 21.8612 25.0493 21.7163C24.8377 21.5714 24.599 21.4994 24.3333 21.5003H17.5999C16.9999 21.5003 16.5221 21.4781 16.1666 21.4337C15.811 21.3892 15.4444 21.3003 15.0666 21.167L11.9666 20.1337L12.6999 17.5337L15.3999 18.4337C15.7777 18.5448 16.2221 18.6337 16.7333 18.7003C17.2444 18.767 17.9999 18.8114 18.9999 18.8337C18.9999 18.5892 18.9279 18.3559 18.7839 18.1337C18.6399 17.9114 18.4675 17.767 18.2666 17.7003L10.4666 14.8337H8.33325V22.167ZM0.333252 26.8337V12.167H10.4666C10.6221 12.167 10.7777 12.1839 10.9333 12.2177C11.0888 12.2514 11.2333 12.2901 11.3666 12.3337L19.1999 15.2337C19.9333 15.5003 20.5279 15.967 20.9839 16.6337C21.4399 17.3003 21.6675 18.0337 21.6666 18.8337H24.3333C25.4444 18.8337 26.3888 19.2003 27.1666 19.9337C27.9444 20.667 28.3333 21.6337 28.3333 22.8337V24.167L17.6666 27.5003L8.33325 24.9003V26.8337H0.333252ZM2.99992 24.167H5.66658V14.8337H2.99992V24.167Z" fill="#621D1E"/>
</svg>
