<svg width="18" height="19" viewBox="0 0 18 19" fill="none" xmlns="http://www.w3.org/2000/svg">
<g id="icon">
<path id="Vector" d="M8.25 13.25H9.75V8.75H8.25V13.25ZM9 7.25C9.2125 7.25 9.39075 7.178 9.53475 7.034C9.67875 6.89 9.7505 6.712 9.75 6.5C9.7495 6.288 9.6775 6.11 9.534 5.966C9.3905 5.822 9.2125 5.75 9 5.75C8.7875 5.75 8.6095 5.822 8.466 5.966C8.3225 6.11 8.2505 6.288 8.25 6.5C8.2495 6.712 8.3215 6.89025 8.466 7.03475C8.6105 7.17925 8.7885 7.251 9 7.25ZM9 17C7.9625 17 6.9875 16.803 6.075 16.409C5.1625 16.015 4.36875 15.4808 3.69375 14.8063C3.01875 14.1318 2.4845 13.338 2.091 12.425C1.6975 11.512 1.5005 10.537 1.5 9.5C1.4995 8.463 1.6965 7.488 2.091 6.575C2.4855 5.662 3.01975 4.86825 3.69375 4.19375C4.36775 3.51925 5.1615 2.985 6.075 2.591C6.9885 2.197 7.9635 2 9 2C10.0365 2 11.0115 2.197 11.925 2.591C12.8385 2.985 13.6323 3.51925 14.3063 4.19375C14.9803 4.86825 15.5148 5.662 15.9098 6.575C16.3048 7.488 16.5015 8.463 16.5 9.5C16.4985 10.537 16.3015 11.512 15.909 12.425C15.5165 13.338 14.9823 14.1318 14.3063 14.8063C13.6303 15.4808 12.8365 16.0152 11.925 16.4097C11.0135 16.8042 10.0385 17.001 9 17ZM9 15.5C10.675 15.5 12.0938 14.9187 13.2563 13.7562C14.4187 12.5937 15 11.175 15 9.5C15 7.825 14.4187 6.40625 13.2563 5.24375C12.0938 4.08125 10.675 3.5 9 3.5C7.325 3.5 5.90625 4.08125 4.74375 5.24375C3.58125 6.40625 3 7.825 3 9.5C3 11.175 3.58125 12.5937 4.74375 13.7562C5.90625 14.9187 7.325 15.5 9 15.5Z" fill="#6D6D6D"/>
</g>
</svg>
