<svg width="16" height="16" viewBox="0 0 16 16" fill="none" xmlns="http://www.w3.org/2000/svg">
<g id="gg:pin">
<g id="Group">
<path id="Vector" fill-rule="evenodd" clip-rule="evenodd" d="M10.848 6.84782C10.848 7.55506 10.567 8.23334 10.0669 8.73344C9.56684 9.23353 8.88856 9.51449 8.18131 9.51449C7.47407 9.51449 6.79579 9.23353 6.2957 8.73344C5.7956 8.23334 5.51465 7.55506 5.51465 6.84782C5.51465 6.14058 5.7956 5.4623 6.2957 4.9622C6.79579 4.4621 7.47407 4.18115 8.18131 4.18115C8.88856 4.18115 9.56684 4.4621 10.0669 4.9622C10.567 5.4623 10.848 6.14058 10.848 6.84782ZM9.51465 6.84782C9.51465 7.20144 9.37417 7.54058 9.12412 7.79063C8.87408 8.04068 8.53494 8.18115 8.18131 8.18115C7.82769 8.18115 7.48855 8.04068 7.23851 7.79063C6.98846 7.54058 6.84798 7.20144 6.84798 6.84782C6.84798 6.4942 6.98846 6.15506 7.23851 5.90501C7.48855 5.65496 7.82769 5.51449 8.18131 5.51449C8.53494 5.51449 8.87408 5.65496 9.12412 5.90501C9.37417 6.15506 9.51465 6.4942 9.51465 6.84782Z" fill="#202020"/>
<path id="Vector_2" fill-rule="evenodd" clip-rule="evenodd" d="M3.86267 11.0119C3.00323 10.1936 2.40574 9.13885 2.14576 7.98098C1.88578 6.82312 1.97499 5.61416 2.4021 4.507C2.82921 3.39983 3.57504 2.44419 4.54528 1.76091C5.51552 1.07762 6.66659 0.697397 7.85292 0.668308C9.03926 0.639218 10.2076 0.962572 11.2101 1.59748C12.2127 2.23239 13.0045 3.15033 13.4853 4.23523C13.9662 5.32013 14.1146 6.52326 13.9116 7.69248C13.7087 8.86169 13.1636 9.94447 12.3453 10.8039L8.208 15.1492L3.86267 11.0119ZM11.38 9.88457L8.162 13.2646L4.782 10.0466C4.11358 9.41012 3.64889 8.58976 3.4467 7.68922C3.24451 6.78868 3.31389 5.8484 3.64608 4.9873C3.97827 4.12619 4.55833 3.38292 5.31294 2.85148C6.06754 2.32004 6.96278 2.02429 7.88547 2.00163C8.80815 1.97898 9.71683 2.23043 10.4966 2.7242C11.2764 3.21797 11.8922 3.93188 12.2663 4.77565C12.6403 5.61941 12.7558 6.55515 12.598 7.46453C12.4403 8.37391 12.0164 9.21608 11.38 9.88457Z" fill="#202020"/>
</g>
</g>
</svg>
