<svg width="12" height="12" viewBox="0 0 12 12" fill="none" xmlns="http://www.w3.org/2000/svg">
<g id="gg:pin">
<g id="Group">
<path id="Vector" fill-rule="evenodd" clip-rule="evenodd" d="M8.13599 5.13599C8.13599 5.66642 7.92527 6.17513 7.5502 6.5502C7.17513 6.92527 6.66642 7.13599 6.13599 7.13599C5.60555 7.13599 5.09685 6.92527 4.72177 6.5502C4.3467 6.17513 4.13599 5.66642 4.13599 5.13599C4.13599 4.60555 4.3467 4.09685 4.72177 3.72177C5.09685 3.3467 5.60555 3.13599 6.13599 3.13599C6.66642 3.13599 7.17513 3.3467 7.5502 3.72177C7.92527 4.09685 8.13599 4.60555 8.13599 5.13599ZM7.13599 5.13599C7.13599 5.4012 7.03063 5.65556 6.84309 5.84309C6.65556 6.03063 6.4012 6.13599 6.13599 6.13599C5.87077 6.13599 5.61642 6.03063 5.42888 5.84309C5.24134 5.65556 5.13599 5.4012 5.13599 5.13599C5.13599 4.87077 5.24134 4.61642 5.42888 4.42888C5.61642 4.24134 5.87077 4.13599 6.13599 4.13599C6.4012 4.13599 6.65556 4.24134 6.84309 4.42888C7.03063 4.61642 7.13599 4.87077 7.13599 5.13599Z" fill="#6D6D6D"/>
<path id="Vector_2" fill-rule="evenodd" clip-rule="evenodd" d="M2.897 8.25905C2.25242 7.64533 1.8043 6.85426 1.60932 5.98586C1.41433 5.11746 1.48124 4.21074 1.80157 3.38037C2.12191 2.55 2.68128 1.83326 3.40896 1.3208C4.13664 0.80834 4.99994 0.52317 5.88969 0.501353C6.77944 0.479535 7.65568 0.722051 8.4076 1.19823C9.15953 1.67441 9.75336 2.36287 10.114 3.17655C10.4746 3.99022 10.5859 4.89257 10.4337 5.76948C10.2815 6.64639 9.87273 7.45848 9.259 8.10305L6.156 11.3621L2.897 8.25905ZM8.535 7.41355L6.1215 9.94855L3.5865 7.53505C3.08519 7.05771 2.73667 6.44244 2.58503 5.76704C2.43338 5.09163 2.48542 4.38643 2.73456 3.74059C2.9837 3.09476 3.41875 2.53731 3.9847 2.13873C4.55065 1.74015 5.22209 1.51834 5.9141 1.50135C6.60611 1.48436 7.28762 1.67295 7.87245 2.04327C8.45728 2.4136 8.91917 2.94903 9.1997 3.58186C9.48024 4.21468 9.56682 4.91648 9.4485 5.59852C9.33019 6.28055 9.01229 6.91219 8.535 7.41355Z" fill="#6D6D6D"/>
</g>
</g>
</svg>
