<svg width="29" height="29" viewBox="0 0 29 29" fill="none" xmlns="http://www.w3.org/2000/svg">
<path id="Vector" d="M2.99986 14.1663L25.9332 7.49961L24.8665 4.03295C24.4665 2.69961 22.9999 1.89961 21.5332 2.29961L3.53319 7.63295C2.19986 8.03295 1.39986 9.49961 1.79986 10.9663L2.99986 14.1663ZM2.99986 14.1663H26.9999V24.8329C26.9999 25.5402 26.7189 26.2185 26.2188 26.7186C25.7187 27.2187 25.0404 27.4996 24.3332 27.4996H5.66652C4.95928 27.4996 4.281 27.2187 3.7809 26.7186C3.28081 26.2185 2.99986 25.5402 2.99986 24.8329V14.1663ZM7.26652 6.56628L11.3999 11.7663M15.5332 4.03295L19.6665 9.36628" stroke="#621D1E" stroke-width="2.66667" stroke-linecap="round" stroke-linejoin="round"/>
</svg>
