<svg width="85" height="85" viewBox="0 0 85 85" fill="none" xmlns="http://www.w3.org/2000/svg">
<circle cx="42.5" cy="42.5" r="42.5" fill="#D4E6CD"/>
<path d="M59.5004 36.007C57.6417 37.0943 55.4756 37.5367 53.3394 37.2651C51.2032 36.9936 49.2167 36.0235 47.6891 34.5057C46.1615 32.9879 45.1785 31.0077 44.8932 28.8733C44.6079 26.7389 45.0363 24.57 46.1116 22.7043C47.1869 20.8386 48.8489 19.3808 50.8388 18.5577C52.8287 17.7346 55.0349 17.5925 57.1139 18.1535C59.193 18.7145 61.0283 19.9471 62.334 21.6594C63.6398 23.3718 64.3429 25.4678 64.3337 27.6212" stroke="#621D1E" stroke-width="4" stroke-linecap="round" stroke-linejoin="round"/>
<path d="M57.0833 36.6833C59.7527 36.6833 61.9167 34.5193 61.9167 31.8499C61.9167 29.1806 59.7527 27.0166 57.0833 27.0166C54.414 27.0166 52.25 29.1806 52.25 31.8499C52.25 34.5193 54.414 36.6833 57.0833 36.6833Z" stroke="#621D1E" stroke-width="4" stroke-linecap="round" stroke-linejoin="round"/>
<path d="M49.8336 19.042L45.0003 22.1837C41.6674 24.1065 39.2348 27.2745 38.2378 30.9909C37.2407 34.7072 37.7608 38.6674 39.6836 42.0003C41.6064 45.3332 44.7745 47.7658 48.4908 48.7628C52.2072 49.7599 56.1674 49.2398 59.5003 47.317L64.3336 44.417C66.5609 43.1351 68.1877 41.021 68.8562 38.5396C69.5247 36.0583 69.1801 33.413 67.8982 31.1857C66.6163 28.9585 64.5022 27.3317 62.0208 26.6632C59.5395 25.9947 56.8942 26.3393 54.6669 27.6212" stroke="#621D1E" stroke-width="4" stroke-linecap="round" stroke-linejoin="round"/>
<path d="M39.611 42C25.6668 49.25 20.8335 66.1667 20.8335 66.1667" stroke="#621D1E" stroke-width="4" stroke-linecap="round" stroke-linejoin="round"/>
<path d="M47.4169 61.3341C47.4169 61.3341 35.3336 68.5841 25.1836 56.5008C25.1836 56.5008 37.7503 49.2508 47.4169 61.3341Z" stroke="#621D1E" stroke-width="4" stroke-linecap="round" stroke-linejoin="round"/>
</svg>
