<svg width="20" height="21" viewBox="0 0 20 21" fill="none" xmlns="http://www.w3.org/2000/svg">
<g id="icon">
<path id="Vector" d="M18.1634 17.3369L14.4533 13.6251C15.5657 12.1755 16.085 10.357 15.906 8.53853C15.7269 6.72005 14.8629 5.03777 13.4891 3.83294C12.1153 2.62811 10.3346 1.99096 8.50834 2.05073C6.68205 2.1105 4.94687 2.86272 3.65479 4.15479C2.36272 5.44687 1.6105 7.18205 1.55073 9.00834C1.49096 10.8346 2.12811 12.6153 3.33294 13.9891C4.53777 15.3629 6.22005 16.2269 8.03853 16.406C9.85701 16.585 11.6755 16.0657 13.1251 14.9533L16.8384 18.6673C16.9256 18.7545 17.0292 18.8237 17.1431 18.8709C17.257 18.9181 17.3792 18.9424 17.5025 18.9424C17.6258 18.9424 17.7479 18.9181 17.8619 18.8709C17.9758 18.8237 18.0793 18.7545 18.1665 18.6673C18.2537 18.5801 18.3229 18.4766 18.3701 18.3626C18.4173 18.2487 18.4416 18.1266 18.4416 18.0033C18.4416 17.8799 18.4173 17.7578 18.3701 17.6439C18.3229 17.5299 18.2537 17.4264 18.1665 17.3392L18.1634 17.3369ZM3.43764 9.25014C3.43764 8.19942 3.74921 7.17231 4.33295 6.29867C4.9167 5.42503 5.7464 4.74412 6.71713 4.34203C7.68786 3.93994 8.75603 3.83473 9.78656 4.03972C10.8171 4.2447 11.7637 4.75067 12.5066 5.49363C13.2496 6.2366 13.7556 7.1832 13.9606 8.21372C14.1655 9.24424 14.0603 10.3124 13.6582 11.2831C13.2562 12.2539 12.5752 13.0836 11.7016 13.6673C10.828 14.2511 9.80085 14.5626 8.75014 14.5626C7.34162 14.5612 5.9912 14.001 4.99523 13.005C3.99926 12.0091 3.43908 10.6587 3.43764 9.25014Z" fill="#6D6D6D"/>
</g>
</svg>
