<svg width="20" height="21" viewBox="0 0 20 21" fill="none" xmlns="http://www.w3.org/2000/svg">
<path d="M9.99924 6.27156C9.26027 6.27156 8.53789 6.49512 7.92346 6.91395C7.30902 7.33279 6.83013 7.9281 6.54734 8.62461C6.26454 9.32111 6.19055 10.0875 6.33472 10.8269C6.47889 11.5663 6.83473 12.2455 7.35727 12.7786C7.8798 13.3117 8.54555 13.6747 9.27032 13.8218C9.9951 13.9689 10.7463 13.8934 11.4291 13.6049C12.1118 13.3164 12.6953 12.8278 13.1059 12.201C13.5164 11.5741 13.7356 10.8372 13.7356 10.0833C13.7344 9.07272 13.3404 8.10386 12.64 7.38928C11.9395 6.67469 10.9898 6.27273 9.99924 6.27156ZM9.99924 12.1358C9.60133 12.1358 9.21236 12.0154 8.88151 11.7899C8.55066 11.5643 8.2928 11.2438 8.14052 10.8687C7.98825 10.4937 7.94841 10.081 8.02604 9.68288C8.10366 9.28473 8.29528 8.91902 8.57664 8.63198C8.858 8.34493 9.21648 8.14945 9.60675 8.07026C9.99701 7.99106 10.4015 8.03171 10.7691 8.18706C11.1368 8.3424 11.451 8.60547 11.672 8.943C11.8931 9.28053 12.0111 9.67735 12.0111 10.0833C12.0111 10.6276 11.7991 11.1497 11.4218 11.5346C11.0445 11.9195 10.5328 12.1358 9.99924 12.1358ZM18.1803 8.50216C18.156 8.37826 18.1058 8.26116 18.0332 8.15883C17.9605 8.05649 17.8671 7.97133 17.7593 7.90914L15.7625 6.74729L15.7546 4.45219C15.7542 4.32485 15.7266 4.19913 15.6739 4.0837C15.6212 3.96828 15.5445 3.86591 15.4492 3.78367C14.6446 3.08911 13.7181 2.55657 12.7188 2.21427C12.6049 2.17504 12.4841 2.16058 12.3643 2.17182C12.2445 2.18305 12.1284 2.21974 12.0233 2.27951L9.99924 3.43255L7.97516 2.27877C7.86997 2.21867 7.75359 2.18175 7.63354 2.17039C7.51349 2.15902 7.39244 2.17347 7.2782 2.2128C6.27873 2.55659 5.35223 3.09062 4.54781 3.78661C4.45283 3.86875 4.37642 3.97092 4.32382 4.08607C4.27123 4.20122 4.24372 4.32662 4.24316 4.45366L4.2331 6.75096L2.2392 7.90987C2.13136 7.9723 2.03799 8.05773 1.96545 8.16032C1.89291 8.26291 1.84291 8.38026 1.81887 8.50436C1.61588 9.54753 1.61588 10.6212 1.81887 11.6644C1.8431 11.7883 1.89319 11.9053 1.96572 12.0076C2.03825 12.11 2.13152 12.1952 2.2392 12.2574L4.23813 13.4193L4.24604 15.7144C4.24647 15.8417 4.274 15.9675 4.32672 16.0829C4.37945 16.1983 4.45611 16.3007 4.55141 16.3829C5.35608 17.0775 6.28258 17.61 7.28179 17.9523C7.39577 17.9915 7.51654 18.006 7.63632 17.9948C7.75611 17.9835 7.87226 17.9468 7.97732 17.8871L9.99924 16.734L12.0212 17.8878C12.1264 17.9479 12.2427 17.9848 12.3628 17.9962C12.4828 18.0076 12.6039 17.9931 12.7181 17.9538C13.7176 17.61 14.6441 17.076 15.4485 16.38C15.5435 16.2978 15.6199 16.1957 15.6725 16.0805C15.7251 15.9654 15.7526 15.84 15.7532 15.7129L15.7632 13.4156L17.7614 12.2567C17.8693 12.1943 17.9627 12.1089 18.0352 12.0063C18.1077 11.9037 18.1577 11.7863 18.1818 11.6622C18.3843 10.619 18.3838 9.54524 18.1803 8.50216ZM16.5543 10.9343L14.6229 12.0544C14.4857 12.1338 14.3726 12.2502 14.296 12.3909C14.2572 12.4642 14.2162 12.5323 14.1739 12.602C14.0887 12.7407 14.0432 12.9008 14.0424 13.0645L14.0323 15.2878C13.5675 15.6446 13.0584 15.9372 12.5184 16.1579L10.5676 15.0444C10.4389 14.9709 10.294 14.9323 10.1465 14.9323H9.87853C9.72445 14.9286 9.5722 14.9668 9.43736 15.0429L7.48441 16.1542C6.94349 15.9346 6.43326 15.6433 5.9669 15.2878L5.95899 13.0711C5.95833 12.9072 5.91278 12.7467 5.8275 12.6078C5.78583 12.5389 5.74415 12.4678 5.70535 12.3967C5.62877 12.2569 5.51591 12.1412 5.37914 12.0625L3.44632 10.9358C3.37121 10.3705 3.37121 9.79751 3.44632 9.23225L5.37771 8.11219C5.5147 8.03285 5.62777 7.91674 5.70464 7.77646C5.74344 7.70316 5.78439 7.63425 5.82678 7.56462C5.91194 7.42592 5.95747 7.26574 5.95827 7.10208L5.96618 4.87881C6.43116 4.52297 6.94021 4.23138 7.4801 4.01164L9.43089 5.12511C9.56561 5.2023 9.71832 5.24081 9.87278 5.23653H10.12C10.274 5.24018 10.4263 5.20198 10.5611 5.12584L12.5141 4.01238C13.055 4.23199 13.5652 4.5233 14.0316 4.87881L14.0395 7.09548C14.0402 7.25939 14.0857 7.41984 14.171 7.55875C14.2127 7.62766 14.2543 7.69876 14.2931 7.76987C14.3697 7.90973 14.4826 8.02538 14.6193 8.10412L16.5522 9.22785C16.6283 9.79398 16.629 10.368 16.5543 10.9343Z" fill="#CCCCCC"/>
</svg>
