<svg xmlns="http://www.w3.org/2000/svg" width="20" height="21" viewBox="0 0 20 21" fill="none">
<path d="M3.33301 10.5003C3.33301 10.7213 3.42081 10.9333 3.57709 11.0896C3.73337 11.2459 3.94533 11.3337 4.16634 11.3337H10.4913L8.57467 13.242C8.49657 13.3195 8.43457 13.4116 8.39226 13.5132C8.34996 13.6147 8.32818 13.7236 8.32818 13.8337C8.32818 13.9437 8.34996 14.0526 8.39226 14.1541C8.43457 14.2557 8.49657 14.3479 8.57467 14.4253C8.65214 14.5034 8.74431 14.5654 8.84586 14.6077C8.94741 14.65 9.05633 14.6718 9.16634 14.6718C9.27635 14.6718 9.38527 14.65 9.48682 14.6077C9.58837 14.5654 9.68054 14.5034 9.75801 14.4253L13.0913 11.092C13.1672 11.0127 13.2267 10.9193 13.2663 10.817C13.3497 10.6141 13.3497 10.3865 13.2663 10.1837C13.2267 10.0814 13.1672 9.98791 13.0913 9.90866L9.75801 6.57533C9.68031 6.49763 9.58807 6.43599 9.48655 6.39394C9.38503 6.35189 9.27622 6.33025 9.16634 6.33025C9.05646 6.33025 8.94765 6.35189 8.84613 6.39394C8.74461 6.43599 8.65237 6.49763 8.57467 6.57533C8.49698 6.65302 8.43534 6.74527 8.39329 6.84678C8.35124 6.9483 8.3296 7.05711 8.3296 7.16699C8.3296 7.27688 8.35124 7.38568 8.39329 7.4872C8.43534 7.58872 8.49698 7.68096 8.57467 7.75866L10.4913 9.66699H4.16634C3.94533 9.66699 3.73337 9.75479 3.57709 9.91107C3.42081 10.0674 3.33301 10.2793 3.33301 10.5003ZM14.1663 2.16699H5.83301C5.16997 2.16699 4.53408 2.43038 4.06524 2.89923C3.5964 3.36807 3.33301 4.00395 3.33301 4.66699V7.16699C3.33301 7.38801 3.42081 7.59997 3.57709 7.75625C3.73337 7.91253 3.94533 8.00033 4.16634 8.00033C4.38735 8.00033 4.59932 7.91253 4.7556 7.75625C4.91188 7.59997 4.99967 7.38801 4.99967 7.16699V4.66699C4.99967 4.44598 5.08747 4.23402 5.24375 4.07774C5.40003 3.92146 5.61199 3.83366 5.83301 3.83366H14.1663C14.3874 3.83366 14.5993 3.92146 14.7556 4.07774C14.9119 4.23402 14.9997 4.44598 14.9997 4.66699V16.3337C14.9997 16.5547 14.9119 16.7666 14.7556 16.9229C14.5993 17.0792 14.3874 17.167 14.1663 17.167H5.83301C5.61199 17.167 5.40003 17.0792 5.24375 16.9229C5.08747 16.7666 4.99967 16.5547 4.99967 16.3337V13.8337C4.99967 13.6126 4.91188 13.4007 4.7556 13.2444C4.59932 13.0881 4.38735 13.0003 4.16634 13.0003C3.94533 13.0003 3.73337 13.0881 3.57709 13.2444C3.42081 13.4007 3.33301 13.6126 3.33301 13.8337V16.3337C3.33301 16.9967 3.5964 17.6326 4.06524 18.1014C4.53408 18.5703 5.16997 18.8337 5.83301 18.8337H14.1663C14.8294 18.8337 15.4653 18.5703 15.9341 18.1014C16.4029 17.6326 16.6663 16.9967 16.6663 16.3337V4.66699C16.6663 4.00395 16.4029 3.36807 15.9341 2.89923C15.4653 2.43038 14.8294 2.16699 14.1663 2.16699Z" fill="#202020"/>
</svg>