<svg width="20" height="21" viewBox="0 0 20 21" fill="none" xmlns="http://www.w3.org/2000/svg">
<path d="M3.33331 10.5003C3.33331 10.7213 3.42111 10.9333 3.57739 11.0896C3.73367 11.2459 3.94563 11.3337 4.16665 11.3337H10.4916L8.57498 13.242C8.49687 13.3195 8.43488 13.4116 8.39257 13.5132C8.35026 13.6147 8.32848 13.7236 8.32848 13.8337C8.32848 13.9437 8.35026 14.0526 8.39257 14.1541C8.43488 14.2557 8.49687 14.3479 8.57498 14.4253C8.65245 14.5034 8.74462 14.5654 8.84617 14.6077C8.94771 14.65 9.05664 14.6718 9.16665 14.6718C9.27666 14.6718 9.38558 14.65 9.48713 14.6077C9.58868 14.5654 9.68084 14.5034 9.75831 14.4253L13.0916 11.092C13.1675 11.0127 13.227 10.9193 13.2666 10.817C13.35 10.6141 13.35 10.3865 13.2666 10.1837C13.227 10.0814 13.1675 9.98791 13.0916 9.90866L9.75831 6.57533C9.68061 6.49763 9.58837 6.43599 9.48685 6.39394C9.38534 6.35189 9.27653 6.33025 9.16665 6.33025C9.05676 6.33025 8.94796 6.35189 8.84644 6.39394C8.74492 6.43599 8.65268 6.49763 8.57498 6.57533C8.49728 6.65302 8.43565 6.74527 8.3936 6.84678C8.35155 6.9483 8.3299 7.05711 8.3299 7.16699C8.3299 7.27688 8.35155 7.38568 8.3936 7.4872C8.43565 7.58872 8.49728 7.68096 8.57498 7.75866L10.4916 9.66699H4.16665C3.94563 9.66699 3.73367 9.75479 3.57739 9.91107C3.42111 10.0674 3.33331 10.2793 3.33331 10.5003ZM14.1666 2.16699H5.83331C5.17027 2.16699 4.53439 2.43038 4.06555 2.89923C3.59671 3.36807 3.33331 4.00395 3.33331 4.66699V7.16699C3.33331 7.38801 3.42111 7.59997 3.57739 7.75625C3.73367 7.91253 3.94563 8.00033 4.16665 8.00033C4.38766 8.00033 4.59962 7.91253 4.7559 7.75625C4.91218 7.59997 4.99998 7.38801 4.99998 7.16699V4.66699C4.99998 4.44598 5.08778 4.23402 5.24406 4.07774C5.40034 3.92146 5.6123 3.83366 5.83331 3.83366H14.1666C14.3877 3.83366 14.5996 3.92146 14.7559 4.07774C14.9122 4.23402 15 4.44598 15 4.66699V16.3337C15 16.5547 14.9122 16.7666 14.7559 16.9229C14.5996 17.0792 14.3877 17.167 14.1666 17.167H5.83331C5.6123 17.167 5.40034 17.0792 5.24406 16.9229C5.08778 16.7666 4.99998 16.5547 4.99998 16.3337V13.8337C4.99998 13.6126 4.91218 13.4007 4.7559 13.2444C4.59962 13.0881 4.38766 13.0003 4.16665 13.0003C3.94563 13.0003 3.73367 13.0881 3.57739 13.2444C3.42111 13.4007 3.33331 13.6126 3.33331 13.8337V16.3337C3.33331 16.9967 3.59671 17.6326 4.06555 18.1014C4.53439 18.5703 5.17027 18.8337 5.83331 18.8337H14.1666C14.8297 18.8337 15.4656 18.5703 15.9344 18.1014C16.4033 17.6326 16.6666 16.9967 16.6666 16.3337V4.66699C16.6666 4.00395 16.4033 3.36807 15.9344 2.89923C15.4656 2.43038 14.8297 2.16699 14.1666 2.16699Z" fill="#F7C1BD"/>
</svg>
