<svg width="60" height="60" viewBox="0 0 34 35" fill="none" xmlns="http://www.w3.org/2000/svg">
<g id="icon">
<path id="Vector" d="M12.9668 8.1615C14.7617 4.94283 15.6584 3.3335 17 3.3335C18.3416 3.3335 19.2383 4.94283 21.0333 8.1615L21.4979 8.9945C22.0079 9.90966 22.2629 10.3672 22.6596 10.669C23.0563 10.9707 23.5521 11.0827 24.5438 11.3065L25.4448 11.5105C28.9298 12.2996 30.6708 12.6934 31.0859 14.0265C31.4996 15.3582 30.3124 16.7479 27.9367 19.526L27.3218 20.2442C26.6475 21.0333 26.3089 21.4286 26.1573 21.9159C26.0058 22.4047 26.0568 22.9317 26.1588 23.9842L26.2523 24.9433C26.6107 28.6507 26.7906 30.5037 25.7054 31.3268C24.6203 32.1499 22.9883 31.3991 19.7271 29.8974L18.8813 29.5092C17.9548 29.0814 17.4916 28.8689 17 28.8689C16.5084 28.8689 16.0452 29.0814 15.1187 29.5092L14.2743 29.8974C11.0118 31.3991 9.37976 32.1499 8.29601 31.3282C7.20942 30.5037 7.38934 28.6507 7.74776 24.9433L7.84126 23.9857C7.94326 22.9317 7.99426 22.4047 7.84126 21.9173C7.69109 21.4286 7.35251 21.0333 6.67817 20.2457L6.06334 19.526C3.68759 16.7493 2.50042 15.3596 2.91409 14.0265C3.32776 12.6934 5.07167 12.2982 8.55667 11.5105L9.45767 11.3065C10.4479 11.0827 10.9423 10.9707 11.3404 10.669C11.7385 10.3672 11.9921 9.90966 12.5021 8.9945L12.9668 8.1615Z" fill="black"/>
</g>
</svg>
