<svg width="20" height="21" viewBox="0 0 20 21" fill="none" xmlns="http://www.w3.org/2000/svg">
<path d="M15 2.375C15 2.20924 14.9341 2.05027 14.8169 1.93306C14.6997 1.81585 14.5407 1.75 14.375 1.75C14.2092 1.75 14.0502 1.81585 13.933 1.93306C13.8158 2.05027 13.75 2.20924 13.75 2.375V3.625C13.75 3.79076 13.8158 3.94973 13.933 4.06694C14.0502 4.18415 14.2092 4.25 14.375 4.25C14.5407 4.25 14.6997 4.18415 14.8169 4.06694C14.9341 3.94973 15 3.79076 15 3.625V2.375ZM18.5662 1.9325C18.449 1.81533 18.2901 1.74951 18.1243 1.74951C17.9586 1.74951 17.7997 1.81533 17.6825 1.9325L16.4325 3.1825C16.3151 3.2997 16.2491 3.45871 16.249 3.62456C16.2489 3.79041 16.3146 3.94952 16.4318 4.06688C16.549 4.18424 16.708 4.25023 16.8739 4.25035C17.0397 4.25047 17.1988 4.1847 17.3162 4.0675L18.5662 2.8175C18.6244 2.75945 18.6706 2.69048 18.7021 2.61455C18.7336 2.53861 18.7498 2.45721 18.7498 2.375C18.7498 2.29279 18.7336 2.21139 18.7021 2.13546C18.6706 2.05953 18.6244 1.99056 18.5662 1.9325ZM8.5662 12.8175C8.6259 12.7598 8.67351 12.6909 8.70626 12.6146C8.73902 12.5384 8.75626 12.4564 8.75698 12.3734C8.7577 12.2904 8.74189 12.2081 8.71047 12.1313C8.67904 12.0545 8.63263 11.9847 8.57395 11.926C8.51527 11.8673 8.44548 11.8209 8.36867 11.7895C8.29186 11.7581 8.20956 11.7423 8.12658 11.743C8.04359 11.7437 7.96158 11.7609 7.88532 11.7937C7.80907 11.8264 7.74011 11.8741 7.68245 11.9338L6.43245 13.1838C6.37276 13.2414 6.32514 13.3104 6.29239 13.3866C6.25963 13.4629 6.24239 13.5449 6.24167 13.6279C6.24095 13.7109 6.25676 13.7932 6.28819 13.87C6.31961 13.9468 6.36602 14.0166 6.4247 14.0752C6.48339 14.1339 6.55317 14.1803 6.62998 14.2118C6.70679 14.2432 6.78909 14.259 6.87208 14.2583C6.95506 14.2576 7.03708 14.2403 7.11333 14.2076C7.18958 14.1748 7.25855 14.1272 7.3162 14.0675L8.5662 12.8175ZM10.7012 2.8175C10.5271 2.64327 10.3203 2.50505 10.0928 2.41074C9.8652 2.31644 9.62128 2.2679 9.37495 2.2679C9.12862 2.2679 8.88471 2.31644 8.65714 2.41074C8.42958 2.50505 8.22283 2.64327 8.0487 2.8175L6.43245 4.4325C6.37445 4.49065 6.32848 4.55966 6.29716 4.63559C6.26585 4.71152 6.2498 4.79287 6.24995 4.875V9.61625L1.6912 14.1738C1.51696 14.3479 1.37875 14.5546 1.28444 14.7822C1.19014 15.0098 1.1416 15.2537 1.1416 15.5C1.1416 15.7463 1.19014 15.9902 1.28444 16.2178C1.37875 16.4454 1.51696 16.6521 1.6912 16.8263L3.6737 18.8075C3.84783 18.9817 4.05458 19.12 4.28214 19.2143C4.50971 19.3086 4.75362 19.3571 4.99995 19.3571C5.24628 19.3571 5.4902 19.3086 5.71776 19.2143C5.94532 19.12 6.15208 18.9817 6.3262 18.8075L10.8837 14.25H15.625C15.7904 14.25 15.9491 14.1843 16.0662 14.0675L17.6825 12.4513C17.8567 12.2771 17.9949 12.0704 18.0892 11.8428C18.1835 11.6152 18.2321 11.3713 18.2321 11.125C18.2321 10.8787 18.1835 10.6348 18.0892 10.4072C17.9949 10.1796 17.8567 9.97288 17.6825 9.79875L10.7012 2.8175ZM8.93245 3.70125C9.04966 3.58408 9.2086 3.51826 9.37433 3.51826C9.54005 3.51826 9.699 3.58408 9.8162 3.70125L16.7987 10.6825C16.8569 10.7406 16.9031 10.8095 16.9346 10.8855C16.9661 10.9614 16.9823 11.0428 16.9823 11.125C16.9823 11.2072 16.9661 11.2886 16.9346 11.3645C16.9031 11.4405 16.8569 11.5094 16.7987 11.5675L15.6237 12.7413L7.75995 4.875L8.93245 3.70125ZM7.49995 6.38375L14.1162 13H10.625C10.5428 12.9999 10.4615 13.0159 10.3855 13.0472C10.3096 13.0785 10.2406 13.1245 10.1825 13.1825L5.4412 17.925C5.324 18.0422 5.16505 18.108 4.99933 18.108C4.8336 18.108 4.67466 18.0422 4.55745 17.925L2.5762 15.9438C2.518 15.8857 2.47182 15.8167 2.44031 15.7408C2.4088 15.6649 2.39258 15.5835 2.39258 15.5013C2.39258 15.419 2.4088 15.3376 2.44031 15.2617C2.47182 15.1858 2.518 15.1168 2.5762 15.0588L7.3162 10.3188C7.37458 10.2606 7.42087 10.1914 7.4524 10.1152C7.48394 10.0391 7.5001 9.95743 7.49995 9.875V6.38375ZM16.875 6.75H18.125C18.2907 6.75 18.4497 6.68415 18.5669 6.56694C18.6841 6.44973 18.75 6.29076 18.75 6.125C18.75 5.95924 18.6841 5.80027 18.5669 5.68306C18.4497 5.56585 18.2907 5.5 18.125 5.5H16.875C16.7092 5.5 16.5502 5.56585 16.433 5.68306C16.3158 5.80027 16.25 5.95924 16.25 6.125C16.25 6.29076 16.3158 6.44973 16.433 6.56694C16.5502 6.68415 16.7092 6.75 16.875 6.75Z" fill="#CCCCCC"/>
</svg>
