<svg width="30" height="31" viewBox="0 0 30 31" fill="none" xmlns="http://www.w3.org/2000/svg">
<path id="Vector" d="M11.2039 6.71099C12.8932 3.68166 13.7372 2.16699 14.9999 2.16699C16.2626 2.16699 17.1066 3.68166 18.7959 6.71099L19.2332 7.49499C19.7132 8.35633 19.9532 8.78699 20.3266 9.07099C20.6999 9.35499 21.1666 9.46033 22.0999 9.67099L22.9479 9.86299C26.2279 10.6057 27.8666 10.9763 28.2572 12.231C28.6466 13.4843 27.5292 14.7923 25.2932 17.407L24.7146 18.083C24.0799 18.8257 23.7612 19.1977 23.6186 19.6563C23.4759 20.1163 23.5239 20.6123 23.6199 21.603L23.7079 22.5057C24.0452 25.995 24.2146 27.739 23.1932 28.5137C22.1719 29.2883 20.6359 28.5817 17.5666 27.1683L16.7706 26.803C15.8986 26.4003 15.4626 26.2003 14.9999 26.2003C14.5372 26.2003 14.1012 26.4003 13.2292 26.803L12.4346 27.1683C9.36391 28.5817 7.82791 29.2883 6.80791 28.515C5.78524 27.739 5.95457 25.995 6.29191 22.5057L6.37991 21.6043C6.47591 20.6123 6.52391 20.1163 6.37991 19.6577C6.23857 19.1977 5.91991 18.8257 5.28524 18.0843L4.70657 17.407C2.47057 14.7937 1.35324 13.4857 1.74257 12.231C2.13191 10.9763 3.77324 10.6043 7.05324 9.86299L7.90124 9.67099C8.83324 9.46033 9.29857 9.35499 9.67324 9.07099C10.0479 8.78699 10.2866 8.35633 10.7666 7.49499L11.2039 6.71099Z" stroke="#621D1E" stroke-width="2.66667"/>
</svg>
