<svg width="16" height="16" viewBox="0 0 16 16" fill="none" xmlns="http://www.w3.org/2000/svg">
<g id="icon">
<path id="Vector" d="M13.0198 4.27326C13.2125 4.45541 13.3249 4.70662 13.3324 4.97165C13.3399 5.23668 13.2419 5.49385 13.0598 5.6866L7.39313 11.6866C7.30129 11.7837 7.19092 11.8613 7.06856 11.915C6.94619 11.9687 6.8143 11.9974 6.68068 11.9992C6.54707 12.0011 6.41443 11.9762 6.29061 11.9259C6.1668 11.8756 6.05431 11.8011 5.95979 11.7066L2.9598 8.7066C2.78316 8.51703 2.68699 8.2663 2.69156 8.00723C2.69613 7.74817 2.80108 7.50099 2.9843 7.31777C3.16752 7.13455 3.4147 7.0296 3.67377 7.02503C3.93283 7.02046 4.18356 7.11662 4.37313 7.29326L6.64646 9.56526L11.6065 4.31326C11.7886 4.12059 12.0398 4.00815 12.3048 4.00064C12.5699 3.99314 12.827 4.0912 13.0198 4.27326Z" fill="#FFFCFC"/>
</g>
</svg>
